<?xml version="1.0" encoding="UTF-8"?>
<svg xmlns="http://www.w3.org/2000/svg" xmlns:xlink="http://www.w3.org/1999/xlink" viewBox="0 0 50 50" width="50px" height="50px">
<g id="surface32073064">
<path style=" stroke:none;fill-rule:nonzero;fill:rgb(100%,100%,100%);fill-opacity:1;" d="M 14 4 C 8.488281 4 4 8.488281 4 14 L 4 36 C 4 41.511719 8.488281 46 14 46 L 36 46 C 41.511719 46 46 41.511719 46 36 L 46 14 C 46 8.488281 41.511719 4 36 4 Z M 14 6 L 36 6 C 40.429688 6 44 9.570312 44 14 L 44 36 C 44 40.429688 40.429688 44 36 44 L 14 44 C 9.570312 44 6 40.429688 6 36 L 6 14 C 6 9.570312 9.570312 6 14 6 Z M 13 15 C 11.355469 15 10 16.355469 10 18 L 10 32 C 10 33.644531 11.355469 35 13 35 L 37 35 C 38.644531 35 40 33.644531 40 32 L 40 18 C 40 16.355469 38.644531 15 37 15 Z M 13.414062 17 L 36.582031 17 L 27.675781 25.894531 C 26.183594 27.382812 23.796875 27.382812 22.304688 25.890625 Z M 38 18.410156 L 38 31.585938 L 31.402344 25 Z M 12 18.414062 L 18.585938 25 L 12 31.585938 Z M 29.988281 26.410156 L 36.585938 33 L 13.414062 33 L 20 26.414062 L 20.890625 27.304688 C 23.144531 29.558594 26.832031 29.5625 29.089844 27.308594 Z M 29.988281 26.410156 "/>
</g>
</svg>
